# xmcd
#
# Track frame offsets: 
#        150
#        19715
#        39105
#        58882
#        72295
#        87255
#        102860
#        122537
#        142252
#        162517
#        180627
#        195920
#        214667
#        239250
#        258412
#
# Disc length: 3735 seconds
#
# Revision: 5
# Processed by: cddbd v1.5.2PL0 Copyright (c) Steve Scherf et al.
# Submitted via: ExactAudioCopy v0.99pb4
#
DISCID=cd0e950f
DTITLE=Christina Lux - Little Luxuries
DYEAR=2002
DGENRE=Pop
TTITLE0=Free
TTITLE1=Liar
TTITLE2=Miss You
TTITLE3=I Wonder
TTITLE4=Love Label
TTITLE5=Talk To Me
TTITLE6=Sunchild
TTITLE7=She Is Me
TTITLE8=Sweet Love
TTITLE9=She's Got
TTITLE10=Let It Flow
TTITLE11=Lia
TTITLE12=Diggi
TTITLE13=Best Friend Intro
TTITLE14=Best Friend
EXTD=
EXTT0=
EXTT1=
EXTT2=
EXTT3=
EXTT4=
EXTT5=
EXTT6=
EXTT7=
EXTT8=
EXTT9=
EXTT10=
EXTT11=
EXTT12=
EXTT13=
EXTT14=
PLAYORDER=
